<svg xmlns="http://www.w3.org/2000/svg" viewBox="0 0 1700.06 1488.04">
  <g id="Layer_x0020_1">
    <path d="M957.878 520.323C958.386 520.125 958.895 519.956 959.404 519.758V453.177C978.476 469.646 996.531 485.239 1015.69 501.792C1010.69 463.77 1005.91 427.358 1000.97 389.703C1010.4 396.059 1018.46 401.539 1027.84 407.839C1020.21 380.071 1013.03 354.026 1005.91 328.009C1005.54 328.094 1005.18 328.151 1004.78 328.235C1005.49 343.292 1006.19 358.32 1006.93 374.11C993.253 370.523 980.793 367.274 967.485 363.772C972.119 390.466 976.611 416.37 981.414 443.94C965.14 431.172 950.334 419.562 933.776 406.567V463.996C924.537 465.521 916.654 466.821 907.584 468.318C924.848 486.171 941.377 503.233 957.878 520.295V520.323Z" fill="#238ECE"/>
    <path d="M1634 257.615C1629.28 259.055 1625.26 260.27 1621.25 261.513C1621.48 262.106 1621.68 262.671 1621.9 263.264H1635.3C1634.84 261.315 1634.53 259.931 1634 257.643V257.615ZM1665.73 255.976H1656.99V262.106C1660.5 262.417 1663.58 262.699 1667.39 263.038C1666.77 260.44 1666.29 258.293 1665.73 255.976ZM1322.23 452.386C1330.54 451.962 1338.25 451.567 1345.96 451.171C1345.88 446.115 1336.53 443.488 1322.23 444.307V452.386ZM1278.55 444.731C1273.52 445.324 1269.14 445.889 1264.73 446.397C1256.11 447.358 1255.32 448.459 1256.76 457.414C1264.45 456.284 1272.13 455.182 1280.24 453.968C1279.68 450.973 1279.2 448.29 1278.52 444.731H1278.55ZM1574.49 264.507H1606.19C1606.53 263.66 1606.87 262.812 1607.21 261.965C1604.58 259.959 1601.93 256.259 1599.3 256.287C1591.08 256.344 1582.88 257.841 1574.46 258.773V264.507H1574.49ZM1374.16 449.731C1395.18 448.657 1415.22 447.612 1435.53 446.567C1435.11 441.143 1434.77 436.595 1434.46 432.358C1416.83 432.358 1399.84 432.33 1382.84 432.471C1381.79 432.471 1380.21 433.742 1379.76 434.816C1377.81 439.448 1376.17 444.222 1374.13 449.759L1374.16 449.731Z" fill="#40AC4E"/>
    <path d="M1634 257.615C1629.28 259.055 1625.26 260.27 1621.25 261.513C1621.48 262.106 1621.68 262.671 1621.9 263.264H1635.3C1634.84 261.315 1634.53 259.931 1634 257.643V257.615ZM1665.73 255.976H1656.99V262.106C1660.5 262.417 1663.58 262.699 1667.39 263.038C1666.77 260.44 1666.29 258.293 1665.73 255.976ZM1322.23 452.386C1330.54 451.962 1338.25 451.567 1345.96 451.171C1345.88 446.115 1336.53 443.488 1322.23 444.307V452.386ZM1278.55 444.731C1273.52 445.324 1269.14 445.889 1264.73 446.397C1256.11 447.358 1255.32 448.459 1256.76 457.414C1264.45 456.284 1272.13 455.182 1280.24 453.968C1279.68 450.973 1279.2 448.29 1278.52 444.731H1278.55ZM1574.49 264.507H1606.19C1606.53 263.66 1606.87 262.812 1607.21 261.965C1604.58 259.959 1601.93 256.259 1599.3 256.287C1591.08 256.344 1582.88 257.841 1574.46 258.773V264.507H1574.49ZM1374.16 449.731C1395.18 448.657 1415.22 447.612 1435.53 446.567C1435.11 441.143 1434.77 436.595 1434.46 432.358C1416.83 432.358 1399.84 432.33 1382.84 432.471C1381.79 432.471 1380.21 433.742 1379.76 434.816C1377.81 439.448 1376.17 444.222 1374.13 449.759L1374.16 449.731Z" fill="#EA5C36"/>
  </g>
</svg>
